<?xml version="1.0" encoding="UTF-8" standalone="no"?>
<!-- Created with Inkscape (http://www.inkscape.org/) -->

<svg
   width="512"
   height="512"
   viewBox="0 0 512 512"
   version="1.1"
   id="svg1"
   inkscape:version="1.3.2 (091e20e, 2023-11-25)"
   sodipodi:docname="prototoy-logo.svg"
   xmlns:inkscape="http://www.inkscape.org/namespaces/inkscape"
   xmlns:sodipodi="http://sodipodi.sourceforge.net/DTD/sodipodi-0.dtd"
   xmlns="http://www.w3.org/2000/svg"
   xmlns:svg="http://www.w3.org/2000/svg">
  <sodipodi:namedview
     id="namedview1"
     pagecolor="#ffffff"
     bordercolor="#000000"
     borderopacity="0.25"
     inkscape:showpageshadow="2"
     inkscape:pageopacity="0.0"
     inkscape:pagecheckerboard="0"
     inkscape:deskcolor="#d1d1d1"
     inkscape:document-units="px"
     inkscape:zoom="0.81033672"
     inkscape:cx="161.04416"
     inkscape:cy="138.21415"
     inkscape:window-width="1512"
     inkscape:window-height="921"
     inkscape:window-x="0"
     inkscape:window-y="33"
     inkscape:window-maximized="1"
     inkscape:current-layer="layer1" />
  <defs
     id="defs1" />
  <g
     inkscape:label="Layer 1"
     inkscape:groupmode="layer"
     id="layer1">
    <rect
       style="fill:#ffffff;fill-opacity:1;stroke:none;stroke-width:12.5566"
       id="rect4"
       width="512"
       height="512"
       x="0"
       y="0"
       rx="4.6927065e-15" />
    <path
       style="font-weight:bold;font-size:310.486px;line-height:1;font-family:'TeX Gyre Heros';-inkscape-font-specification:'TeX Gyre Heros Bold';letter-spacing:0px;stroke-width:369.099;fill:#00c2ea;fill-opacity:1"
       d="m 422.74724,432.84097 v -45.33095 h -46.5729 v 45.33095 z"
       id="path4" />
    <path
       style="font-weight:bold;font-size:310.486px;line-height:1;font-family:'TeX Gyre Heros';-inkscape-font-specification:'TeX Gyre Heros Bold';letter-spacing:0px;stroke-width:369.099"
       d="m 367.48083,306.78366 v -44.08901 c -2.48389,-0.31049 -4.03632,-0.31049 -5.27826,-0.31049 -19.87111,0 -37.25832,13.04041 -46.5729,35.70589 v -32.91151 h -43.46804 v 167.66243 h 43.46804 v -89.10948 c 0,-25.45985 12.72993,-38.18977 38.18978,-38.18977 4.65729,0 7.76215,0.31048 13.66138,1.24194 z"
       id="path3" />
    <path
       style="font-weight:bold;font-size:310.486px;line-height:1;font-family:'TeX Gyre Heros';-inkscape-font-specification:'TeX Gyre Heros Bold';letter-spacing:0px;stroke-width:369.099"
       d="m 242.04455,276.66652 c 0,-45.33096 -25.77034,-70.16984 -72.96421,-70.16984 H 69.103848 v 226.34429 h 46.572902 v -80.72636 h 58.06088 c 41.60512,0 68.30692,-29.49616 68.30692,-75.44809 z m -46.5729,2.79437 c 0,22.97597 -11.48799,33.84298 -36.32686,33.84298 h -43.46804 v -67.99644 h 43.46804 c 24.83887,0 36.32686,10.86701 36.32686,34.15346 z"
       id="text1" />
  </g>
</svg>
